<?xml version="1.0" standalone="no"?>
<!DOCTYPE svg PUBLIC "-//W3C//DTD SVG 20010904//EN"
 "http://www.w3.org/TR/2001/REC-SVG-20010904/DTD/svg10.dtd">
<svg version="1.0" xmlns="http://www.w3.org/2000/svg"
 width="450.000000pt" height="450.000000pt" viewBox="0 0 450.000000 450.000000"
 preserveAspectRatio="xMidYMid meet">
<metadata>
Created by potrace 1.14, written by Peter Selinger 2001-2017
</metadata>
<g transform="translate(0.000000,450.000000) scale(0.100000,-0.100000)"
fill="#000000" stroke="none">
<path d="M1860 2802 c-31 -5 -38 -11 -44 -42 -3 -14 -30 -113 -61 -220 -31
-107 -57 -199 -58 -205 -2 -5 -15 -53 -30 -105 -15 -52 -70 -246 -122 -430
-53 -184 -107 -360 -122 -390 -31 -64 -113 -146 -179 -179 -144 -73 -331 -59
-425 30 -115 110 -126 306 -20 376 99 67 229 -9 231 -134 0 -40 7 -48 50 -58
3 -1 23 -7 45 -13 27 -8 43 -8 50 -1 5 5 10 42 9 82 0 163 -116 289 -279 304
-129 12 -253 -62 -307 -185 -26 -58 -36 -191 -19 -259 45 -176 176 -298 366
-340 48 -10 185 -4 245 11 65 17 151 56 181 82 8 8 18 14 21 14 20 0 161 156
163 180 1 3 8 19 18 37 18 33 33 83 128 418 33 116 66 230 74 255 l15 46 98
-2 c53 -1 107 -2 119 -3 19 -1 26 -13 44 -73 12 -40 26 -76 32 -80 7 -4 43 -7
81 -7 l68 0 -5 32 c-8 41 -8 41 -68 247 -59 205 -113 397 -139 495 -33 122
-26 113 -83 117 -29 1 -63 1 -77 0z m65 -354 c3 -18 10 -44 14 -58 19 -60 30
-97 36 -127 l7 -33 -71 0 c-38 0 -72 3 -74 8 -4 6 5 38 47 177 2 6 6 22 11 38
10 36 22 34 30 -5z"/>
<path d="M2089 2802 l-46 -3 39 -137 c22 -75 46 -161 54 -189 8 -29 21 -77 28
-105 8 -29 41 -143 73 -253 l58 -200 72 -1 c43 -1 76 3 81 10 5 6 15 34 22 61
7 28 16 55 19 60 3 6 7 21 9 35 8 57 19 41 52 -72 l26 -93 65 0 c90 -1 94 1
107 53 7 26 21 76 32 112 20 68 178 620 187 655 17 66 17 65 -13 66 -33 1
-115 1 -126 0 -4 -1 -15 -27 -23 -58 -9 -32 -22 -78 -29 -103 -8 -25 -37 -130
-67 -233 -40 -144 -55 -183 -61 -167 -4 12 -42 141 -83 288 -41 146 -77 268
-80 270 -7 7 -145 6 -152 -1 -3 -4 18 -89 46 -191 l52 -184 -25 -92 c-14 -51
-28 -95 -30 -98 -8 -7 -16 20 -96 305 l-74 261 -35 4 c-20 1 -57 2 -82 0z"/>
</g>
</svg>
